<svg width="55" height="55" viewBox="0 0 55 55" fill="none" xmlns="http://www.w3.org/2000/svg">
<path d="M54.123 27.5003C54.123 42.4002 42.3028 54.4606 27.7443 54.4606C13.1859 54.4606 1.36572 42.4002 1.36572 27.5003C1.36572 12.6004 13.1859 0.540039 27.7443 0.540039C42.3028 0.540039 54.123 12.6004 54.123 27.5003Z" fill="#026691" stroke="#026691"/>
<path d="M27.7441 17.703C29.8859 17.703 31.6039 15.9322 31.6039 13.7704C31.6039 11.6087 29.8859 9.83789 27.7441 9.83789C25.6023 9.83789 23.8843 11.6087 23.8843 13.7704C23.8843 15.9322 25.6023 17.703 27.7441 17.703Z" fill="#7BBBBF" stroke="#026691"/>
<path d="M23.8843 44.6625V45.1625H24.3843H27.4646C28.6096 45.1625 29.6342 44.6841 30.3703 44.0293C31.0942 43.3853 31.6039 42.509 31.6039 41.659V20.6348V20.1348H31.1039H28.0236C26.8786 20.1348 25.854 20.6131 25.1179 21.268C24.394 21.9119 23.8843 22.7882 23.8843 23.6382V44.6625Z" fill="#7BBBBF" stroke="#026691"/>
</svg>
