<svg width="60" height="61" viewBox="0 0 60 61" fill="none" xmlns="http://www.w3.org/2000/svg">
<path d="M-0.000488281 48.2772L29.0809 36.668L59.8655 46.8746L29.6601 60.4569L-0.000488281 48.2772Z" fill="#7BBBBF"/>
<path d="M45.9655 16.8855C45.9655 7.8597 38.7626 0.543457 29.8768 0.543457C20.9909 0.543457 13.7881 7.8597 13.7881 16.8855C13.7881 19.9606 14.9388 22.9192 15.8866 24.7012C18.9637 30.487 29.818 46.8745 29.818 46.8745L43.1569 26.1094C44.9274 23.4841 45.9655 20.3088 45.9655 16.8855Z" fill="#026691"/>
<path d="M29.8769 23.9902C33.7402 23.9902 36.872 20.8091 36.872 16.885C36.872 12.9609 33.7402 9.77979 29.8769 9.77979C26.0136 9.77979 22.8818 12.9609 22.8818 16.885C22.8818 20.8091 26.0136 23.9902 29.8769 23.9902Z" fill="#7BBBBF"/>
</svg>
