<svg width="55" height="55" viewBox="0 0 55 55" fill="none" xmlns="http://www.w3.org/2000/svg">
<path d="M27.8741 0.245014L36.0491 17.6475C36.1101 17.7767 36.2274 17.8663 36.363 17.8871L54.6426 20.6779C54.9844 20.7302 55.1211 21.1715 54.8737 21.4255L41.6461 34.9716C41.5476 35.0725 41.5029 35.2171 41.5263 35.3596L44.6488 54.4872C44.7072 54.8453 44.3497 55.118 44.0439 54.9493L27.6938 45.918C27.5724 45.8508 27.4271 45.8508 27.3057 45.918L10.9561 54.9488C10.6503 55.118 10.2928 54.8448 10.3512 54.4867L13.4737 35.359C13.4971 35.2171 13.4519 35.0719 13.3539 34.9711L0.126269 21.4255C-0.121075 21.172 0.0155482 20.7302 0.357361 20.6779L18.637 17.8871C18.7726 17.8663 18.8904 17.7767 18.9509 17.6475L27.1259 0.245014C27.2788 -0.0810202 27.7207 -0.0810202 27.8741 0.245014Z" fill="#026691"/>
</svg>
