<svg width="63" height="63" viewBox="0 0 63 63" fill="none" xmlns="http://www.w3.org/2000/svg">
<path d="M62.9995 59.1415L56.5592 47.8558C59.3955 43.0995 61.0355 37.4985 61.0355 31.5003C61.0355 14.2662 47.5268 0.29541 30.8627 0.29541C14.1986 0.29541 0.689941 14.2662 0.689941 31.5003C0.689941 48.7344 14.1986 62.7051 30.8627 62.7051C37.3365 62.7051 43.3288 60.5894 48.2436 57.0002C49.1273 57.6083 50.1673 58.2962 51.5566 59.102C56.3614 61.8896 62.8332 59.3627 62.8332 59.3627C62.7775 59.2712 62.7138 59.1804 62.6555 59.0888L62.9995 59.1415Z" fill="#026691"/>
<path d="M31.1983 11.3901C20.6613 11.3901 12.0889 20.2558 12.0889 31.1532C12.0889 42.0506 20.6613 50.9163 31.1983 50.9163C41.7353 50.9163 50.3078 42.0506 50.3078 31.1532C50.3078 20.2558 41.7353 11.3901 31.1983 11.3901ZM31.1983 47.4491C29.6474 47.4491 27.5682 43.8134 26.6462 37.7409H35.7511C34.8284 43.8134 32.7492 47.4491 31.1983 47.4491ZM26.2768 34.2737C26.2111 33.2758 26.1695 32.2405 26.1695 31.1532C26.1695 29.5493 26.2533 28.0508 26.3921 26.6458H36.0045C36.1433 28.0508 36.2271 29.5493 36.2271 31.1532C36.2271 32.2405 36.1855 33.2758 36.1198 34.2737H26.2768ZM15.4414 31.1532C15.4414 29.5895 15.66 28.0785 16.0596 26.6458H23.0014C22.8813 28.0542 22.817 29.5562 22.817 31.1532C22.817 32.2378 22.8492 33.2758 22.9055 34.2737H15.7344C15.544 33.2634 15.4414 32.2204 15.4414 31.1532ZM31.1983 14.8573C32.6272 14.8573 34.5032 17.9452 35.5117 23.1786H26.8849C27.8934 17.9452 29.7695 14.8573 31.1983 14.8573ZM39.3953 26.6458H46.337C46.7366 28.0785 46.9552 29.5895 46.9552 31.1532C46.9552 32.2204 46.8526 33.2634 46.6622 34.2737H39.4911C39.5475 33.2758 39.5796 32.2378 39.5796 31.1532C39.5796 29.5562 39.5153 28.0542 39.3953 26.6458ZM44.9316 23.1786H38.9574C38.4478 20.1837 37.6553 17.7441 36.6877 15.8795C40.1958 17.2324 43.1139 19.8432 44.9316 23.1786ZM25.7089 15.8795C24.7413 17.7441 23.9488 20.1837 23.4392 23.1786H17.465C19.2827 19.8432 22.2008 17.2324 25.7089 15.8795ZM16.7911 37.7409H23.2267C23.7114 41.3787 24.5952 44.2814 25.7082 46.4269C21.7281 44.8917 18.5063 41.7365 16.7911 37.7409ZM36.6877 46.4269C37.8008 44.2814 38.6852 41.3787 39.1693 37.7409H45.6048C43.8903 41.7365 40.6685 44.8917 36.6877 46.4269Z" fill="#7BBBBF"/>
</svg>
