<?xml version="1.0" encoding="utf-8"?>
<!DOCTYPE svg PUBLIC "-//W3C//DTD SVG 1.1//EN" "http://www.w3.org/Graphics/SVG/1.1/DTD/svg11.dtd">
<svg version="1.1" id="Layer_1" xmlns="http://www.w3.org/2000/svg" xmlns:xlink="http://www.w3.org/1999/xlink" x="0px" y="0px"
	 width="55.007px" height="55.002px" viewBox="0 0 55.007 55.002" enable-background="new 0 0 55.007 55.002" xml:space="preserve">
<g id="Phone_2_">
	<g>
		<path fill="#076792" d="M54.72,40.06c-0.286-0.573-0.716-0.967-1.289-1.183L41.39,33.718c-0.502-0.215-1.039-0.27-1.613-0.161
			c-0.572,0.106-1.039,0.412-1.397,0.913l-5.268,6.45c-4.229-1.936-7.973-4.551-11.234-7.848c-3.261-3.296-5.859-7.023-7.794-11.18
			l6.45-5.375c0.431-0.358,0.717-0.806,0.86-1.344c0.144-0.537,0.107-1.093-0.107-1.666l-5.16-12.039
			c-0.216-0.502-0.609-0.896-1.183-1.183C14.37,0,13.796-0.072,13.223,0.072L2.042,2.651c-0.645,0.072-1.146,0.358-1.505,0.86
			S0,4.55,0,5.124c0,9.03,2.257,17.415,6.772,25.154C11.216,37.802,17.2,43.787,24.726,48.23c7.741,4.515,16.127,6.772,25.157,6.772
			c0.573,0,1.11-0.18,1.612-0.538s0.789-0.859,0.86-1.505l2.58-11.18C55.079,41.207,55.007,40.633,54.72,40.06z"/>
	</g>
</g>
</svg>
