<svg width="52" height="48" viewBox="0 0 52 48" fill="none" xmlns="http://www.w3.org/2000/svg">
<path d="M50.8089 15.437C46.9031 12.9677 43.0096 10.4676 39.1022 8.00218C38.1114 7.37701 37.3719 7.95701 37.3395 9.36581C37.3019 11.001 37.3132 12.638 37.3042 14.2742C35.807 14.3034 34.2052 14.4121 32.1222 14.7187C22.1814 16.183 12.7532 25.1582 10.7338 35.0654C10.5755 35.8417 10.78 35.9861 11.5155 35.8732C14.2328 35.456 16.2486 34.0497 17.5674 31.6108C21.2283 24.8395 26.7486 20.7542 34.3641 19.8423C35.3317 19.7265 36.3028 19.6762 37.2758 19.6601C37.2675 21.1578 37.2581 22.6554 37.2426 24.153C37.2322 25.1537 37.5471 25.7546 38.1104 25.8474C38.6891 25.901 38.9547 25.7001 39.2244 25.5313C43.0852 23.1151 46.9428 20.6917 50.8056 18.2807C51.2934 17.9762 51.6679 17.5712 51.6652 16.8571C51.6625 16.1491 51.301 15.7481 50.8089 15.437Z" fill="#ED7C30"/>
<path d="M48.9259 30.0857C48.9259 30.0857 45.6661 30.7617 44.5149 32.5139C43.3727 34.2523 43.0185 36.4335 42.9676 37.5759C42.9193 38.6561 42.9356 39.9002 42.9517 41.4141H6.00299V6.0912H25.5193C25.6143 6.0912 28.8857 6.06452 30.8918 4.28327C32.4268 2.92041 32.6994 0 32.6994 0H2.52449L0 2.56178V44.9437L2.52449 47.5053H46.4444L48.9696 44.9428L48.9259 30.0857Z" fill="#ED7C30"/>
</svg>
