<svg width="55" height="56" viewBox="0 0 55 56" fill="none" xmlns="http://www.w3.org/2000/svg">
<path d="M54.123 27.8294C54.123 42.7293 42.3028 54.7897 27.7443 54.7897C13.1859 54.7897 1.36572 42.7293 1.36572 27.8294C1.36572 12.9295 13.1859 0.869141 27.7443 0.869141C42.3028 0.869141 54.123 12.9295 54.123 27.8294Z" fill="#1A3F61" stroke="#1A3F61"/>
<path d="M27.7441 18.0321C29.8859 18.0321 31.6039 16.2613 31.6039 14.0995C31.6039 11.9378 29.8859 10.167 27.7441 10.167C25.6023 10.167 23.8843 11.9378 23.8843 14.0995C23.8843 16.2613 25.6023 18.0321 27.7441 18.0321Z" fill="#7BBBBF" stroke="#1A3F61"/>
<path d="M23.8843 44.9916V45.4916H24.3843H27.4646C28.6096 45.4916 29.6342 45.0132 30.3703 44.3584C31.0942 43.7144 31.6039 42.8381 31.6039 41.9881V20.9639V20.4639H31.1039H28.0236C26.8786 20.4639 25.854 20.9422 25.1179 21.5971C24.394 22.241 23.8843 23.1173 23.8843 23.9673V44.9916Z" fill="#7BBBBF" stroke="#1A3F61"/>
</svg>
