<svg xmlns="http://www.w3.org/2000/svg" viewBox="0 0 56.11 56"><defs><style>.cls-1{fill:#1a3f61;stroke:#1a3f61;}.cls-2{fill:#7cbabf;}</style></defs><title>Asset 29</title><g id="Layer_2" data-name="Layer 2"><g id="Layer_1-2" data-name="Layer 1"><path class="cls-1" d="M55.61,33.11V23l-6.2-1a19.3,19.3,0,0,0-2-4.71l3.67-5.05L44,5,38.85,8.54a24,24,0,0,0-4.71-2L33.11.5H23L22,6.7a21.39,21.39,0,0,0-4.71,2L12.21,5.09,5,12.21l3.67,5.05a22.34,22.34,0,0,0-2,4.82L.5,23v10.1l6.2,1a21.38,21.38,0,0,0,2,4.71L5,44l7.12,7.12,5.17-3.67a22.33,22.33,0,0,0,4.82,2l1,6.09h10.1l1-6.2a24,24,0,0,0,4.71-2L44.13,51l7.12-7.12-3.67-5.17a21.39,21.39,0,0,0,2-4.71ZM28.06,43.79A15.73,15.73,0,1,1,43.79,28.06,15.69,15.69,0,0,1,28.06,43.79Z"/><path class="cls-2" d="M28.06,21.25A6.75,6.75,0,1,1,21.31,28a6.76,6.76,0,0,1,6.75-6.75m0-4A10.75,10.75,0,1,0,38.81,28,10.75,10.75,0,0,0,28.06,17.25Z"/></g></g></svg>