<svg xmlns="http://www.w3.org/2000/svg" viewBox="0 0 56 52.77"><defs><style>.cls-1{fill:#1a3f61;stroke:#1a3f61;}</style></defs><title>Asset 31</title><g id="Layer_2" data-name="Layer 2"><g id="Layer_1-2" data-name="Layer 1"><path class="cls-1" d="M55.5.5H.5V6.87h55Z"/><path class="cls-1" d="M55.5,15.36H.5v6.37h55Z"/><path class="cls-1" d="M28,30.22H.5V36.6H28Z"/><path class="cls-1" d="M38.27,52.26c-.72-.11-1.13-.84-1.12-2.06,0-4,0-8,0-12,0-2,0-4,0-6,0-1.72,1-2.43,2.24-1.67,5,3,10,6,15,9a1.92,1.92,0,0,1,0,3.46L39.69,51.87A2,2,0,0,1,38.27,52.26Z"/></g></g></svg>