<svg width="62" height="64" viewBox="0 0 62 64" fill="none" xmlns="http://www.w3.org/2000/svg">
<path d="M22.2913 45.4335C21.2467 45.2972 20.6567 44.3871 20.6654 42.866C20.6938 37.8723 20.6754 32.8785 20.6759 27.8844C20.6759 25.3875 20.637 22.8897 20.6898 20.3938C20.7352 18.2524 22.0993 17.3646 23.9422 18.306C31.2092 22.018 38.4509 25.7827 45.7153 29.5006C46.6304 29.969 47.305 30.5755 47.3172 31.6509C47.3299 32.7361 46.64 33.3551 45.7393 33.8217C38.6062 37.5199 31.4823 41.2369 24.3528 44.9427C23.8545 45.2021 23.3644 45.5098 22.2913 45.4335Z" fill="#7BBBBF"/>
<path d="M55.5898 40.2122C53.4079 41.5519 52.6656 42.6595 51.5969 44.6111C46.4054 54.0912 36.3695 58.1467 26.04 55.6489C19.8225 54.1479 14.5488 50.2586 11.19 44.6972C7.83124 39.1368 6.7896 32.5706 8.25671 26.2081C9.72076 19.8549 13.5225 14.4606 18.9615 11.0187C24.4014 7.57645 30.8162 6.50732 37.025 8.0083C40.7761 8.91353 44.2274 10.7298 47.1097 13.262C46.0144 14.1341 44.9195 15.0068 43.8211 15.8749C42.9601 16.5551 42.6329 17.2093 42.886 17.7037C43.1814 18.1829 43.5095 18.2477 43.8128 18.3379C48.153 19.6276 52.4976 20.9102 56.8348 22.2049C57.3825 22.3683 57.9493 22.3759 58.5576 21.8829C59.1607 21.3943 59.2899 20.8419 59.2654 20.2519C59.0708 15.5681 58.9098 10.8732 58.7112 6.19069C58.661 5.00321 57.7294 4.83708 56.5071 5.78117C55.28 6.72883 54.0734 7.70462 52.862 8.67461C48.9115 4.86298 44.0271 2.14595 38.6745 0.853076C21.9843 -3.1738 5.20337 7.44381 1.26549 24.5195C-0.642359 32.7926 0.71216 41.3318 5.07987 48.5633C9.44758 55.7936 16.3053 60.8517 24.3901 62.8046C26.7382 63.3713 29.1418 63.6585 31.5331 63.6585C42.8589 63.6576 53.2949 57.3486 58.7693 47.1946C60.0845 44.7562 60.76 42.2249 61.5058 39.1698C61.6681 38.5066 56.7711 39.4869 55.5898 40.2122Z" fill="#1A3F61"/>
</svg>
