<svg width="52" height="48" viewBox="0 0 52 48" fill="none" xmlns="http://www.w3.org/2000/svg">
<path d="M50.8089 15.7661C46.9031 13.2968 43.0096 10.7967 39.1022 8.33128C38.1114 7.70612 37.3719 8.28611 37.3395 9.69492C37.3019 11.3302 37.3132 12.9671 37.3042 14.6033C35.807 14.6326 34.2052 14.7412 32.1222 15.0478C22.1814 16.5121 12.7532 25.4873 10.7338 35.3945C10.5755 36.1708 10.78 36.3152 11.5155 36.2023C14.2328 35.7851 16.2486 34.3788 17.5674 31.9399C21.2283 25.1686 26.7486 21.0833 34.3641 20.1714C35.3317 20.0556 36.3028 20.0053 37.2758 19.9892C37.2675 21.4869 37.2581 22.9845 37.2426 24.4821C37.2322 25.4828 37.5471 26.0837 38.1104 26.1765C38.6891 26.2301 38.9547 26.0292 39.2244 25.8604C43.0852 23.4442 46.9428 21.0209 50.8056 18.6098C51.2934 18.3053 51.6679 17.9003 51.6652 17.1862C51.6625 16.4783 51.301 16.0772 50.8089 15.7661Z" fill="#1A3F61"/>
<path d="M48.9259 30.4148C48.9259 30.4148 45.6661 31.0908 44.5149 32.843C43.3727 34.5814 43.0185 36.7626 42.9676 37.905C42.9193 38.9852 42.9356 40.2293 42.9517 41.7432H6.00299V6.4203H25.5193C25.6143 6.4203 28.8857 6.39363 30.8918 4.61237C32.4268 3.24951 32.6994 0.329102 32.6994 0.329102H2.52449L0 2.89089V45.2729L2.52449 47.8344H46.4444L48.9696 45.2719L48.9259 30.4148Z" fill="#1A3F61"/>
</svg>
