<svg width="51" height="47" viewBox="0 0 51 47" fill="none" xmlns="http://www.w3.org/2000/svg">
<g clip-path="url(#clip0)">
<path d="M34.1114 21.5657C32.2913 21.5386 30.4693 21.5573 28.6486 21.5578V4.13869L22.8054 0.75293V21.5612C20.9723 21.5618 19.1393 21.5607 17.3063 21.5533C16.1686 21.5488 15.4879 21.8563 15.3862 22.4015C15.3295 22.9612 15.5592 23.2169 15.7526 23.477C18.524 27.1962 21.3036 30.9127 24.0692 34.6342C24.4187 35.1042 24.8815 35.4637 25.6931 35.4575C26.4977 35.4513 26.9511 35.0992 27.3011 34.6218C30.0814 30.832 32.8972 27.054 35.6727 23.2631C36.3769 22.301 35.7131 21.5894 34.1114 21.5657Z" fill="#ED7C30"/>
<path d="M50.6249 36.8679C50.5706 35.8206 50.3328 34.0465 49.1641 32.9179C47.3165 31.1336 44.7817 30.9429 44.7817 30.9429V41.1103H26.1236H25.2068H6.54879V30.9429C6.54879 30.9429 4.01399 31.1336 2.16636 32.9179C0.997714 34.0465 0.759894 35.8206 0.705552 36.8679C0.614398 38.6319 0.705552 43.9318 0.705552 43.9318L3.62717 46.7532H25.2068H26.1236H47.7033L50.6249 43.9318C50.6249 43.9318 50.7161 38.6319 50.6249 36.8679Z" fill="#ED7C30"/>
</g>
<defs>
<clipPath id="clip0">
<rect width="50" height="46" fill="white" transform="translate(0.665039 0.75293)"/>
</clipPath>
</defs>
</svg>
