<?xml version="1.0" encoding="utf-8"?>
<!-- Generator: Adobe Illustrator 21.0.0, SVG Export Plug-In . SVG Version: 6.00 Build 0)  -->
<svg version="1.1" id="Layer_1" xmlns="http://www.w3.org/2000/svg" xmlns:xlink="http://www.w3.org/1999/xlink" x="0px" y="0px"
	 viewBox="0 0 69 69" style="enable-background:new 0 0 69 69;" xml:space="preserve">
<style type="text/css">
	.st0{fill:#036691;}
</style>
<title>Asset 63</title>
<g id="Layer_2">
	<g id="Layer_1-2">
		<path class="st0" d="M34.5,6C50.2,6,63,18.8,63,34.5S50.2,63,34.5,63S6,50.2,6,34.5C6,18.8,18.8,6,34.5,6 M34.5,0
			C15.4,0,0,15.4,0,34.5S15.4,69,34.5,69S69,53.6,69,34.5S53.6,0,34.5,0z"/>
		<path class="st0" d="M43,38c-1.8,0-3.6,0-5.5,0V17.1h-5.8V38h-5.5c-1.1,0-1.8,0.3-1.9,0.8c0,0.4,0.1,0.8,0.4,1.1
			c2.8,3.7,5.5,7.4,8.3,11.1c0.7,0.9,1.9,1.1,2.8,0.4c0.2-0.1,0.3-0.3,0.4-0.4c2.8-3.8,5.6-7.6,8.4-11.4C45.2,38.7,44.5,38,43,38z"
			/>
	</g>
</g>
</svg>
