<svg xmlns="http://www.w3.org/2000/svg" viewBox="0 0 45.16 60"><defs><style>.cls-1{fill:#005d83;}.cls-2{fill:#62b1b5;}</style></defs><title>Asset 4</title><g id="Layer_2" data-name="Layer 2"><g id="Layer_1-2" data-name="Layer 1"><polygon class="cls-1" points="45.16 60 0 60 0 2.19 0 0 35.17 0 45.16 11.53 45.16 60"/><polygon class="cls-2" points="40.19 34.52 4.46 34.52 4.46 30.74 4.46 30.59 40.19 30.59 40.19 34.52"/><polygon class="cls-2" points="40.32 43.13 4.58 43.13 4.58 39.34 4.58 39.2 40.32 39.2 40.32 43.13"/><polygon class="cls-2" points="35.17 0 45.16 11.11 45.16 11.53 35.17 11.53 35.17 0"/><polygon class="cls-2" points="40.32 25.92 4.58 25.92 4.58 22.13 4.58 21.99 40.32 21.99 40.32 25.92"/></g></g></svg>