<svg width="62" height="65" viewBox="0 0 62 65" fill="none" xmlns="http://www.w3.org/2000/svg">
<path d="M22.2913 46.1044C21.2467 45.9681 20.6567 45.058 20.6654 43.5369C20.6938 38.5432 20.6754 33.5494 20.6759 28.5553C20.6759 26.0584 20.637 23.5606 20.6898 21.0647C20.7352 18.9233 22.0993 18.0354 23.9422 18.9769C31.2092 22.6889 38.4509 26.4536 45.7153 30.1715C46.6304 30.6399 47.305 31.2464 47.3172 32.3218C47.3299 33.407 46.64 34.026 45.7393 34.4926C38.6062 38.1908 31.4823 41.9078 24.3528 45.6136C23.8545 45.873 23.3644 46.1807 22.2913 46.1044Z" fill="#7BBBBF"/>
<path d="M55.5898 40.8831C53.4079 42.2228 52.6656 43.3304 51.597 45.2819C46.4054 54.7621 36.3695 58.8176 26.04 56.3198C19.8225 54.8188 14.5488 50.9295 11.19 45.3681C7.83124 39.8077 6.7896 33.2415 8.25671 26.879C9.72076 20.5258 13.5225 15.1315 18.9615 11.6896C24.4014 8.24735 30.8162 7.17822 37.025 8.6792C40.7761 9.58443 44.2274 11.4007 47.1097 13.9329C46.0144 14.805 44.9195 15.6777 43.8211 16.5458C42.9601 17.226 42.6329 17.8802 42.886 18.3746C43.1814 18.8538 43.5095 18.9186 43.8128 19.0088C48.153 20.2985 52.4976 21.5811 56.8348 22.8758C57.3825 23.0392 57.9493 23.0468 58.5576 22.5538C59.1607 22.0652 59.2899 21.5128 59.2654 20.9228C59.0708 16.239 58.9098 11.5441 58.7112 6.86159C58.661 5.67411 57.7294 5.50798 56.5071 6.45207C55.28 7.39972 54.0734 8.37552 52.862 9.34551C48.9115 5.53388 44.0271 2.81684 38.6745 1.52397C21.9843 -2.5029 5.20337 8.11471 1.26549 25.1904C-0.642359 33.4635 0.71216 42.0027 5.07987 49.2342C9.44759 56.4645 16.3053 61.5225 24.3901 63.4755C26.7382 64.0422 29.1418 64.3294 31.5331 64.3294C42.8589 64.3285 53.2949 58.0195 58.7693 47.8655C60.0845 45.4271 60.76 42.8958 61.5058 39.8407C61.6681 39.1775 56.7711 40.1578 55.5898 40.8831Z" fill="#026691"/>
</svg>
