<svg width="58" height="59" viewBox="0 0 58 59" fill="none" xmlns="http://www.w3.org/2000/svg">
<path d="M28.7112 58.8331C44.568 58.8331 57.4225 45.7005 57.4225 29.5005C57.4225 13.3006 44.568 0.167969 28.7112 0.167969C12.8545 0.167969 0 13.3006 0 29.5005C0 45.7005 12.8545 58.8331 28.7112 58.8331Z" fill="#026691"/>
<path d="M47.5827 19.6651C47.2771 19.3566 46.9106 19.3786 46.5127 19.5111C43.3555 20.5655 40.1916 21.5995 37.0354 22.6565C36.2351 22.9247 36.088 23.5831 36.676 24.218C37.302 24.8937 37.9501 25.5474 38.592 26.2079L28.8348 36.3271L21.3432 28.5209H18.2311L7.21777 38.9796C7.21777 38.9796 8.7164 39.5673 10.3904 39.5673C11.5916 39.5673 12.9457 38.4956 12.9457 38.4956L19.7369 32.1063L27.2895 39.9764H30.3749L41.1252 28.8279C41.7446 29.468 42.3665 30.106 42.9822 30.7497C43.4073 31.1939 43.8344 31.285 44.1763 31.0174C44.5096 30.7246 44.566 30.4909 44.6383 30.2694C45.6708 27.0994 46.6983 23.9278 47.734 20.7588C47.8647 20.3586 47.8914 19.9763 47.5827 19.6651Z" fill="#7BBBBF"/>
</svg>
