<svg width="60" height="63" viewBox="0 0 60 63" fill="none" xmlns="http://www.w3.org/2000/svg">
<path d="M-0.000488281 50.6063L29.0809 38.9971L59.8655 49.2037L29.6601 62.786L-0.000488281 50.6063Z" fill="#7BBBBF"/>
<path d="M28.9842 49.7555C28.9843 49.7557 28.9843 49.7558 29.818 49.2036L28.9843 49.7558L29.8308 51.0338L30.6594 49.744L43.9924 28.9882C45.8671 26.2043 46.9655 22.8388 46.9655 19.2146C46.9655 9.6513 39.3296 1.87256 29.8768 1.87256C20.424 1.87256 12.7881 9.6513 12.7881 19.2146C12.7881 22.5136 14.0133 25.6378 15.0037 27.4999C16.5656 30.4366 20.0731 36.0169 23.165 40.8273C24.7161 43.2405 26.1707 45.4722 27.2375 47.1006C27.7709 47.9148 28.2074 48.5784 28.5107 49.0384C28.6623 49.2685 28.7806 49.4477 28.8611 49.5694L28.9528 49.7081L28.9763 49.7436L28.9823 49.7527L28.9838 49.755L28.9842 49.7555Z" fill="#7BBBBF" stroke="#BAD8DD" stroke-width="2"/>
<path d="M29.8769 26.3193C33.7402 26.3193 36.872 23.1382 36.872 19.2141C36.872 15.29 33.7402 12.1089 29.8769 12.1089C26.0136 12.1089 22.8818 15.29 22.8818 19.2141C22.8818 23.1382 26.0136 26.3193 29.8769 26.3193Z" fill="#BAD8DD"/>
</svg>
