<svg xmlns="http://www.w3.org/2000/svg" viewBox="0 0 55 51.77"><defs><style>.cls-1{fill:#7cbabf;}</style></defs><title>Asset 21</title><g id="Layer_2" data-name="Layer 2"><g id="Layer_1-2" data-name="Layer 1"><path class="cls-1" d="M55,0H0V6.37H55Z"/><path class="cls-1" d="M55,14.86H0v6.37H55Z"/><path class="cls-1" d="M27.5,29.72H0V36.1H27.5Z"/><path class="cls-1" d="M37.77,51.76c-.72-.11-1.13-.84-1.12-2.06,0-4,0-8,0-12,0-2,0-4,0-6,0-1.72,1-2.43,2.24-1.67,5,3,10,6,15,9a1.92,1.92,0,0,1,0,3.46L39.19,51.37A2,2,0,0,1,37.77,51.76Z"/></g></g></svg>