<?xml version="1.0" encoding="utf-8"?>
<!-- Generator: Adobe Illustrator 16.0.0, SVG Export Plug-In . SVG Version: 6.00 Build 0)  -->
<!DOCTYPE svg PUBLIC "-//W3C//DTD SVG 1.1//EN" "http://www.w3.org/Graphics/SVG/1.1/DTD/svg11.dtd">
<svg version="1.1" id="Layer_1" xmlns="http://www.w3.org/2000/svg" xmlns:xlink="http://www.w3.org/1999/xlink" x="0px" y="0px"
	 width="614.64px" height="161.469px" viewBox="0 0 614.64 161.469" enable-background="new 0 0 614.64 161.469"
	 xml:space="preserve">
<g>
	<defs>
		<rect id="SVGID_1_" x="-76.968" y="-75.792" width="767.402" height="314.044"/>
	</defs>
	<clipPath id="SVGID_2_">
		<use xlink:href="#SVGID_1_"  overflow="visible"/>
	</clipPath>
	<path clip-path="url(#SVGID_2_)" fill="#1A3F61" d="M612.491,107.834c-0.051-0.019-0.09-0.036-0.113-0.048
		c-3.135-1.561-2.072-7.196-2.072-10.136V86.165c0-4.086-0.391-8.038-2.66-11.572c-1.863-2.903-4.676-5.188-7.897-6.419
		c-2.543-0.972-5.271-1.285-8.006-1.265v-0.002h-9.901c-2.776,0-5.025,2.249-5.025,5.023v4.241h14.075
		c1.69,0.008,3.393,0.084,5.001,0.596c2.413,0.767,4.29,2.866,4.865,5.303l0.165,1.481h-16.465c-3.515,0-9.715,1.702-12.57,4.939
		c-1.59,1.812-2.963,3.238-3.731,7.465c-0.384,2.08-0.003,5.471,0,5.488c0.52,4.617,2,8.731,5.603,11.884
		c2.914,2.548,6.574,3.624,10.369,3.936c3.999,0.329,8.272,0.404,12.048-1.146c2.473-1.018,3.669-2.631,5.076-4.739
		c0,0,0.218,0.604,0.219,0.604c1.4,3.838,4.857,5.075,8.563,5.487l4.608-9.22C614.523,108.484,612.979,108.025,612.491,107.834
		 M601.069,100.299c-0.214,2.025-0.794,3.919-2.181,5.36c-1.731,1.799-3.95,2.302-6.353,2.319c-2.965,0.021-5.941,0.243-8.89-0.174
		c-0.441-0.063-0.887-0.143-1.303-0.307c-0.402-0.158-0.769-0.39-1.128-0.631c-3.507-2.356-4.868-7.012-2.461-10.747
		c2.66-4.128,7.605-3.46,11.847-3.46h10.207h0.222C601.03,94.983,601.34,97.746,601.069,100.299"/>
	<path clip-path="url(#SVGID_2_)" fill="#1A3F61" d="M461.26,106.138v-9.681v-9.641c0-3.765,0.146-7.466-1.351-11.025
		c-0.82-1.951-1.998-3.754-3.483-5.264c-2.709-2.755-6.4-4.498-10.232-4.933c-5.033-0.572-11.562-0.568-15.632,2.893
		c-1.778,1.512-3.38,3.566-4.609,5.65c-0.727-1.316-1.623-2.538-2.678-3.61c-2.709-2.755-6.4-4.498-10.233-4.933
		c-4.096-0.466-8.979-0.281-12.862,1.153c-2.498,0.923-4.257,2.44-5.389,4.646v-5.197h-4.252c-2.773,0-5.022,2.249-5.022,5.023v7
		v0.149v37.819v0.246v0.27h4.252c2.773,0,5.022-2.249,5.022-5.022V80.91c0-0.835,0.181-1.668,0.579-2.402
		c0.002-0.005,0.005-0.01,0.007-0.014c1.589-2.912,4.724-4.003,7.853-4.168c3.542-0.188,7.525-0.581,10.906,0.725
		c1.723,0.666,3.273,1.891,4.086,3.55c1.303,2.659,0.828,6.106,0.828,9.015v8.216v16.853v3.504v0.246h0.246h2.202h0.016l0.014-0.003
		c2.105-0.28,4.148-0.395,5.465-2.333c1.521-2.239,1.116-5.392,1.116-7.96v-9.681v-3.192h0.049V80.042
		c0-0.529,0.108-1.06,0.359-1.526c0.002-0.003,0.004-0.005,0.005-0.008c0.003-0.005,0.005-0.01,0.007-0.014
		c1.589-2.912,4.723-4.003,7.852-4.168c3.543-0.188,7.526-0.581,10.906,0.725c1.723,0.666,3.274,1.891,4.086,3.55
		c1.303,2.659,0.829,6.106,0.829,9.015v8.216v16.853v3.504v0.246h0.246h2.203h0.014l0.015-0.003c2.105-0.28,4.149-0.395,5.466-2.333
		C461.665,111.859,461.26,108.705,461.26,106.138"/>
	<path clip-path="url(#SVGID_2_)" fill="#1A3F61" d="M252.078,58.469c2.924,0,5.296-2.371,5.296-5.296
		c0-2.925-2.372-5.296-5.296-5.296c-2.925,0-5.297,2.371-5.297,5.296C246.781,56.098,249.153,58.469,252.078,58.469"/>
	<path clip-path="url(#SVGID_2_)" fill="#1A3F61" d="M251.694,117.249h-4.252V71.765c0-2.774,2.249-5.024,5.023-5.024h4.252v45.485
		C256.717,115,254.468,117.249,251.694,117.249"/>
	<path clip-path="url(#SVGID_2_)" fill="#1A3F61" d="M316.695,106.75v-9.682v-9.64c0.002-3.765,0.147-7.467-1.35-11.025
		c-0.82-1.951-1.998-3.755-3.482-5.265c-2.71-2.754-6.399-4.498-10.232-4.932c-4.097-0.466-8.98-0.281-12.864,1.153
		c-2.499,0.923-4.256,2.44-5.387,4.646v-5.197h-4.252c-2.775,0-5.023,2.249-5.023,5.023v7v0.149v37.818v0.246v0.271h4.252
		c2.774,0,5.023-2.249,5.023-5.023V81.521c0-0.834,0.179-1.667,0.579-2.401c0.002-0.005,0.004-0.009,0.007-0.014
		c1.588-2.912,4.723-4.004,7.851-4.168c3.543-0.188,7.526-0.582,10.906,0.725c1.723,0.666,3.273,1.891,4.086,3.549
		c1.303,2.66,0.829,6.107,0.829,9.016v8.216v16.852v3.504v0.246h0.245h2.204h0.013c0,0,0.014-0.002,0.017-0.002
		c2.104-0.281,4.147-0.393,5.464-2.333C317.1,112.469,316.695,109.318,316.695,106.75"/>
	<path clip-path="url(#SVGID_2_)" fill="#1A3F61" d="M544.639,82.668v-6.472h1.717c6.347,0,12.144-3.593,14.969-9.275h-0.013
		l0.013-0.025h-16.686v-16.44c-1.924,0-3.931-0.094-5.768,0.586c-1.832,0.676-2.816,2.123-3.342,3.915l-0.275,2.25v9.783
		c-2.313,0.449-4.061,2.485-4.061,4.929v1.753v2.525h4.057c0.008,0,0.004,13.987,0.004,14.985c0,5.799-0.807,12.247,2.063,17.538
		c0.642,1.183,1.427,2.286,2.341,3.274c3.092,3.344,7.089,4.79,11.512,5.255h1.482l4.609-9.274h-4.939
		c-2.483-0.263-4.637-0.87-6.222-2.978c-2.171-2.886-1.462-7.267-1.462-10.707V82.668z"/>
	<path clip-path="url(#SVGID_2_)" fill="#1A3F61" d="M233.207,108.167c-5.699,0-11.398,0.005-17.097,0.012
		c-3.299,0-6.592,0.081-9.894,0.076c-4.072-0.006-8.14-0.846-9.949-4.908c-1.504-3.375-0.755-8.104-0.755-11.786V79.331
		c0-4.098,0.002-8.196,0-12.293c-0.001-3.397-0.569-7.033,1.651-9.917c3.411-4.434,10.049-3.293,14.968-3.293h3.052
		c5.896,0,11.311-3.252,14.081-8.456l0.184-0.358h-0.402c-3.993,0-7.987,0-11.98,0c-0.623,0-1.25-0.007-1.878-0.015l-12.353-0.046
		c-8.912,0-16.136,7.224-16.136,16.135v2.134v1.016v33.218c0,1.163,0.061,2.326,0.189,3.47c0.74,6.566,3.741,12.545,10.626,14.98
		c6.049,2.139,13.372,1.073,19.707,1.073h11.825h0.152l0.068-0.135l4.161-8.323l0.178-0.354H233.207z"/>
	<path clip-path="url(#SVGID_2_)" fill="#1A3F61" d="M366.387,92.129c2.727,0,5.053-2.175,5.121-4.898v-3.967
		c-0.01-9.624-7.814-16.675-17.438-16.675h-6.176c-9.63,0-17.437,7.807-17.437,17.439v16.58c0,8.888,7.207,16.095,16.096,16.095
		h17.727l4.93-9.274h-23.366c-3.409-0.314-6.081-3.171-6.081-6.661V99.76h-0.006l0.025-7.632L366.387,92.129L366.387,92.129z
		 M339.733,83.265c0-4.498,3.646-8.145,8.145-8.145h6.211c4.498,0,8.146,3.647,8.146,8.145H339.733z"/>
	<path clip-path="url(#SVGID_2_)" fill="#1A3F61" d="M518.993,107.834c-0.051-0.019-0.089-0.036-0.113-0.048
		c-3.135-1.561-2.072-7.196-2.072-10.136V86.165c0-4.086-0.391-8.038-2.66-11.572c-1.863-2.903-4.676-5.188-7.897-6.419
		c-2.543-0.972-5.271-1.285-8.006-1.265v-0.002h-9.901c-2.776,0-5.025,2.249-5.025,5.023v4.241h14.075
		c1.69,0.008,3.393,0.084,5.001,0.596c2.413,0.767,4.29,2.866,4.865,5.303l0.165,1.481h-16.465c-3.515,0-9.715,1.702-12.57,4.939
		c-1.59,1.812-2.962,3.238-3.731,7.465c-0.384,2.08-0.003,5.471,0,5.488c0.52,4.617,2,8.731,5.603,11.884
		c2.914,2.548,6.574,3.624,10.369,3.936c3.999,0.329,8.271,0.404,12.048-1.146c2.473-1.018,3.669-2.631,5.075-4.739
		c0,0,0.219,0.604,0.22,0.604c1.4,3.838,4.857,5.075,8.563,5.487l4.608-9.22C521.025,108.484,519.482,108.025,518.993,107.834
		 M507.573,100.299c-0.216,2.025-0.796,3.919-2.183,5.36c-1.731,1.799-3.95,2.302-6.353,2.319c-2.965,0.021-5.94,0.243-8.89-0.174
		c-0.441-0.063-0.887-0.143-1.303-0.307c-0.402-0.158-0.77-0.39-1.128-0.631c-3.507-2.356-4.868-7.012-2.461-10.747
		c2.66-4.128,7.604-3.46,11.847-3.46h10.207h0.222C507.532,94.983,507.843,97.746,507.573,100.299"/>
	<path clip-path="url(#SVGID_2_)" fill="#ED7C30" d="M100.198,78.169L69.69,62.775c-1.866-1.026-4.199,0.373-4.199,2.519v30.881
		c0,2.146,2.333,3.545,4.199,2.518l30.508-15.485C102.157,82.087,102.157,79.29,100.198,78.169"/>
	<path clip-path="url(#SVGID_2_)" fill="#026690" d="M80.453,38.702c8.896,0,17.153,2.778,23.953,7.513
		c4.656,3.241,10.8,3.375,15.581,0.32c-9.597-11.078-23.761-18.097-39.534-18.097c-23.163,0-42.854,15.138-49.707,36.039
		c7.176-2.227,13.55-6.422,18.603-11.983C57.043,44.026,68.138,38.702,80.453,38.702"/>
	<path clip-path="url(#SVGID_2_)" fill="#026690" d="M119.026,114.321c-4.299-2.747-9.824-2.533-13.954,0.462
		c-6.924,5.021-15.431,7.985-24.619,7.985c-12.316,0-23.41-5.324-31.105-13.793c-5.052-5.561-11.426-9.756-18.602-11.982
		c6.853,20.901,26.544,36.04,49.707,36.04c15.773,0,29.937-7.02,39.534-18.098L119.026,114.321z"/>
	<path clip-path="url(#SVGID_2_)" fill="#7BBABE" d="M80.453,10.264c18.813,0,35.925,7.413,48.575,19.468
		c4.083,3.891,10.322,4.429,15.074,1.392C129.314,12.194,106.282,0,80.453,0C38.199,0,3.426,32.631,0,74.017l0.161-0.05
		C6.303,72.061,11,67.156,12.805,60.983C21.365,31.709,48.45,10.264,80.453,10.264"/>
	<path clip-path="url(#SVGID_2_)" fill="#7BBABE" d="M144.103,130.345c-4.752-3.037-10.992-2.498-15.075,1.393
		c-12.65,12.056-29.762,19.468-48.574,19.468c-32.003,0-59.088-21.445-67.648-50.72C11,94.313,6.304,89.408,0.161,87.502L0,87.453
		c3.426,41.386,38.198,74.017,80.453,74.017C106.282,161.469,129.314,149.276,144.103,130.345"/>
</g>
</svg>
