<?xml version="1.0" encoding="utf-8"?>
<!-- Generator: Adobe Illustrator 16.0.0, SVG Export Plug-In . SVG Version: 6.00 Build 0)  -->
<!DOCTYPE svg PUBLIC "-//W3C//DTD SVG 1.1//EN" "http://www.w3.org/Graphics/SVG/1.1/DTD/svg11.dtd">
<svg version="1.1" xmlns="http://www.w3.org/2000/svg" xmlns:xlink="http://www.w3.org/1999/xlink" x="0px" y="0px"
	 width="1150.32px" height="298.08px" viewBox="0 0 1150.32 298.08" enable-background="new 0 0 1150.32 298.08"
	 xml:space="preserve">
<g id="Engage_Video_Shape_1_" enable-background="new    ">
	<g id="Engage_Video_Shape">
		<g>
			<path fill-rule="evenodd" clip-rule="evenodd" fill="#FFFFFF" d="M461.055,132.293c-1.26,0.911-2.504,1.581-3.361,2.885
				c-0.16,0-0.32,0-0.48,0c0.02-2.024,0.302-4.885-0.24-6.491c-4.32,0-8.642,0-12.962,0c0,21.476,0,42.958,0,64.435
				c3.611,0.019,10.24,0.747,13.202-0.24c0-10.098,0-20.197,0-30.295c0-8.781-0.203-15.102,4.801-18.753
				c2.087-1.523,5.706-3.867,10.082-2.885c4.494,1.008,7.985,2.898,9.841,6.492c1.908,3.692,1.44,9.913,1.44,15.388
				c0,10.097,0,20.196,0,30.294c3.61,0.019,10.24,0.747,13.202-0.24c0-10.578,0-21.159,0-31.737c0-11.137,0.147-18.892-4.561-25.245
				C485.646,127.3,470.661,125.343,461.055,132.293z M412.087,115.463c3.828,0,10.759,0.802,13.922-0.241
				c0.019-3.497,0.712-9.88-0.24-12.743c-19.601,0-39.208,0-58.809,0c0,30.211,0,60.431,0,90.642c13.601,0,27.206,0,40.806,0
				c4.161,0,8.322,0,12.482,0c1.837,0,4.325,0.232,5.761-0.24c0.019-3.498,0.712-9.881-0.24-12.743c-10.32,0-20.644,0-30.965,0
				c-3.828,0-10.759,0.802-13.922-0.24c0-5.931,0-11.862,0-17.792c0-2.582-0.464-6.28,0.24-8.415c12.721,0,25.445,0,38.166,0
				c0-4.087,0-8.175,0-12.262c-8.8,0-17.604,0-26.404,0c-3.598,0-8.911,0.779-12.002-0.241c0-5.85,0-11.701,0-17.551
				c0-2.515-0.443-6.104,0.24-8.174C391.443,115.463,401.767,115.463,412.087,115.463z M556.589,128.687
				c0.032,1.593,0.462,4.92-0.24,6.01c0,0.081,0,0.161,0,0.241c-1.351-0.501-2.035-1.865-3.121-2.645
				c-2.015-1.448-4.679-2.787-7.201-3.606c-11.49-3.735-23.263,3.674-26.404,10.819c-2.417,5.497-2.401,13.274-2.4,21.158
				c0,6.342-0.42,13.193,1.2,18.272c3.064,9.604,14.693,18.358,28.325,13.945c4.01-1.299,6.503-3.945,9.601-6.011
				c0.587,1.745,0.392,5.691,0,7.453c-1.581,7.112-3.35,9.931-9.841,12.021c-6.013,1.937-15.079-1.745-17.283-5.049
				c-2.789,0.295-8.058,5.872-10.562,7.453c0.497,2.489,3.912,4.231,5.761,5.529c3.521,2.472,7.275,4.08,12.242,5.29
				c9.605,2.339,23.186-3.862,26.644-8.415c1.966-2.589,3.907-5.517,5.041-8.896c0.641-1.912,0.487-6.106,1.44-7.693
				c0-15.146,0-30.296,0-45.441c0-4.728,0-9.457,0-14.185c0-1.975,0.273-4.686-0.24-6.251
				C565.231,128.687,560.91,128.687,556.589,128.687z M555.629,173.406c-1.641,3.937-5.752,6.401-10.321,7.454
				c-3.662,0.843-6.787-1.019-8.642-2.164c-6.169-3.813-6.241-8.296-6.241-18.032c0-4.099-0.333-9.088,0.96-12.262
				c1.085-2.665,4.089-5.375,6.721-6.492c1.166-0.495,2.795-0.308,3.84-0.961c7.554-0.091,12.506,3.205,14.163,8.896
				c0.902,3.103,0.48,8.395,0.48,12.021C556.589,165.648,556.833,170.518,555.629,173.406z M613.958,127.965
				c-3.83,0-7.293-0.008-10.321,0.962c-3.103,0.994-6.234,2.537-8.642,4.328c-1.338,0.996-2.177,2.653-3.601,3.606
				c0.293,1.511,1.136,1.435,2.16,2.164c2.175,1.546,5.12,4.945,7.682,5.77c0.159,0.065,4.081-3.367,5.521-3.847
				c5.657-1.887,15.244-0.795,18.723,1.923c1.421,1.11,1.159,2.977,2.16,4.568c0.021,2.361,0.406,5.771-0.239,7.693
				c-8.633-0.054-21.548-1.172-27.845,1.442c-6.583,2.734-10.041,7.45-11.762,15.147c-0.863,3.864,0.704,7.856,1.681,10.098
				c2.995,6.88,8.535,9.894,16.563,11.781c8.338,1.961,18.291-1.209,21.123-5.771c0.16,0,0.32,0,0.479,0c0,1.764,0,3.526,0,5.29
				c3.611,0.019,10.24,0.747,13.202-0.24c0-11.78,0-23.563,0-35.344c0-8.116,0.173-15.511-2.88-20.436
				C633.86,130.486,624.66,127.966,613.958,127.965z M625.479,178.937c-2.827,3.628-17.752,3.278-21.603,0.722
				c-3.02-2.005-5.406-8.583-1.44-11.541c1.126-0.84,2.865-1.511,4.32-1.924c0.997-0.282,2.119-0.021,2.88-0.48
				c5.921,0,11.843,0,17.764,0c0,0.08,0,0.16,0,0.24c0.08,0,0.16,0,0.239,0C627.732,171.003,627.664,176.134,625.479,178.937z
				 M700.852,128.687c0.031,1.593,0.462,4.92-0.24,6.01c0,0.081,0,0.161,0,0.241c-1.352-0.501-2.035-1.865-3.12-2.645
				c-2.015-1.448-4.68-2.787-7.201-3.606c-11.49-3.735-23.264,3.674-26.404,10.819c-2.416,5.497-2.4,13.274-2.4,21.158
				c0,6.342-0.42,13.193,1.2,18.272c3.063,9.604,14.692,18.358,28.324,13.945c4.01-1.299,6.503-3.945,9.602-6.011
				c0.587,1.745,0.392,5.691,0,7.453c-1.581,7.112-3.35,9.931-9.842,12.021c-6.013,1.937-15.078-1.745-17.282-5.049
				c-2.789,0.295-8.058,5.872-10.562,7.453c0.496,2.489,3.911,4.231,5.761,5.529c3.521,2.472,7.275,4.08,12.241,5.29
				c9.605,2.339,23.187-3.862,26.645-8.415c1.967-2.589,3.907-5.517,5.041-8.896c0.642-1.912,0.487-6.106,1.44-7.693
				c0-15.146,0-30.296,0-45.441c0-4.728,0-9.457,0-14.185c0-1.975,0.272-4.686-0.24-6.251
				C709.493,128.687,705.172,128.687,700.852,128.687z M699.891,173.406c-1.641,3.937-5.751,6.401-10.321,7.454
				c-3.661,0.843-6.787-1.019-8.642-2.164c-6.169-3.813-6.24-8.296-6.24-18.032c0-4.099-0.333-9.088,0.96-12.262
				c1.085-2.665,4.089-5.375,6.721-6.492c1.166-0.495,2.795-0.308,3.841-0.961c7.555-0.091,12.507,3.205,14.162,8.896
				c0.902,3.103,0.48,8.395,0.48,12.021C700.851,165.648,701.096,170.518,699.891,173.406z M994.416,103.923
				c0,7.853,0,15.708,0,23.562c0,1.925,0.494,7.712-0.24,8.896c-0.317,0.333-2.122-1.257-2.64-1.683
				c-2.763-2.272-5.811-3.992-9.842-5.049c-11.092-2.909-21.684,5.341-24.483,11.781c-2.383,5.479-2.161,13.44-2.161,21.157
				c0.002,16.637,1.19,24.495,12.242,30.295c3.505,1.839,10.017,3.45,15.362,1.923c2.959-0.845,5.885-2,8.161-3.606
				c1.203-0.848,2.046-2.097,3.36-2.885c0.522,1.532,0.271,4.303,0.24,6.251c3.61,0.02,10.24,0.747,13.202-0.24
				c0-20.915,0-41.837,0-62.752c0-6.251,0-12.503,0-18.754c0-2.721,0.503-6.63-0.24-8.896
				C1003.059,103.923,998.736,103.923,994.416,103.923z M991.296,178.215c-1.692,2.359-4.579,3.333-7.921,4.088
				c-8.315,1.879-12.955-4.468-14.402-9.857c-0.542-2.017,0.001-3.795-0.48-6.011c-1.072-4.938-0.043-14.004,1.44-17.552
				c0.9-2.154,2.935-4.59,5.041-5.53c1.359-0.32,2.72-0.641,4.08-0.962c6.439-0.085,10.619,1.123,12.962,5.049
				C995.745,153.688,995.198,172.777,991.296,178.215z M1070.028,135.419c-2.794-2.081-6.227-3.875-9.842-5.049
				c-13.827-4.489-25.896,3.604-30.725,11.541c-3.937,6.469-6.356,21.484-3.601,31.496c3.274,11.898,9.455,18.021,21.603,21.158
				c2.991,0.772,8.403,1.315,12.002,0.48c5.393-1.25,9.83-3.005,13.683-5.77c1.618-1.162,2.892-2.973,4.561-4.088
				c-0.478-2.232-7.328-5.948-8.882-8.175c-2.044,0.28-5.467,3.802-7.921,4.809c-8.891,3.649-17.745-0.716-21.123-6.491
				c-0.714-1.221-1.099-3.148-1.44-4.568c-0.209-0.866,0.106-1.823-0.24-2.404c0.048-0.624,0.106-0.816,0.24-1.202
				c13.601,0,27.206,0,40.807,0c0-4.728,0-9.457,0-14.185C1077.479,145.371,1075.27,139.323,1070.028,135.419z M1065.707,156.576
				c-9.12,0-18.244,0-27.364,0c-0.102-8.765,6.05-16.789,15.603-14.666c2.293,0.51,3.846,0.422,5.521,1.443
				c2.655,1.618,4.712,4.482,5.761,7.694c0.386,1.177,0.115,2.841,0.721,3.847C1065.936,155.636,1065.863,156.126,1065.707,156.576z
				 M1149.72,155.615c-0.844-3.973-0.34-7.371-1.68-10.579c-0.927-2.217-2.52-4.006-3.841-5.771
				c-5.143-6.867-11.955-9.989-24.244-9.857c-1.355,0.835-6.124,0.928-7.921,1.683c-6.496,2.73-11.725,8.089-14.402,14.666
				c-0.981,2.411-1.085,5.47-1.68,8.174c0,1.122,0,2.244,0,3.366c-0.543,2.517-0.535,7.34,0,9.857
				c0.731,3.443,0.064,6.371,0.96,9.377c2.415,8.109,7.194,12.491,14.162,16.108c2.919,1.517,9.624,3.789,14.882,2.646
				c11.091-2.413,18.144-6.445,22.084-15.869c1.255-3.002,1.147-6.806,1.92-10.338c0-1.042,0-2.084,0-3.126
				C1150.598,163.006,1150.302,158.351,1149.72,155.615z M1124.756,182.303c-2.979,0.686-6.23-0.588-7.921-1.442
				c-5.896-2.98-7.212-7.091-7.681-15.628c-0.08-1.448-0.3-3.62,0-5.049c0.662-3.167-0.137-6.012,0.72-8.656
				c1.09-3.363,3.637-6.573,6.721-7.934c1.277-0.563,3.127-0.455,4.32-1.202c7.679-0.096,12.426,2.451,14.643,7.694
				c1.146,2.711,1.199,6.694,1.2,10.339C1136.761,173.694,1135.689,179.788,1124.756,182.303z M891.681,104.163
				c-0.95,1.214-0.905,3.194-1.44,4.809c-1.177,3.548-2.109,7.295-3.36,11.06c-4.106,12.351-7.631,25.415-11.762,37.747
				c-1.26,3.762-2.173,7.515-3.36,11.061c-0.412,1.227-0.313,2.227-0.961,3.125c0,0.16,0,0.32,0,0.481c-0.16,0-0.319,0-0.479,0
				c-1.411-6-3.622-12.085-5.521-17.792c-3.262-9.807-5.68-19.754-8.881-29.333c-1.521-4.55-2.629-9.132-4.081-13.464
				c-0.778-2.323-0.834-5.349-2.16-7.213c-0.08-0.24-0.16-0.48-0.24-0.721c-3.967-0.02-11.369-0.85-14.642,0.24
				c1.456,6.136,4.076,12.435,6.241,18.272c3.892,10.497,6.724,21.178,10.562,31.496c3.549,9.544,6.11,19.25,9.602,28.611
				c1.505,4.037,2.245,8.358,4.08,12.021c3.601,0,7.201,0,10.802,0c0.641-2.083,1.28-4.168,1.92-6.251
				c1.962-5.302,3.484-10.848,5.521-16.35c5.633-15.215,9.898-31.034,15.603-46.402c1.72-4.635,2.86-9.696,4.801-14.426
				c0.85-2.073,2.265-4.607,2.399-7.213c-3.439,0-6.881,0-10.321,0C894.732,103.923,892.518,103.636,891.681,104.163z
				 M778.863,133.976c-2.793-2.08-6.226-3.875-9.842-5.049c-13.827-4.489-25.895,3.604-30.725,11.541
				c-3.937,6.469-6.356,21.483-3.601,31.496c3.274,11.898,9.455,18.021,21.604,21.158c2.99,0.771,8.402,1.315,12.002,0.48
				c5.392-1.25,9.83-3.006,13.682-5.771c1.619-1.161,2.892-2.973,4.561-4.087c-0.477-2.232-7.328-5.948-8.881-8.175
				c-2.045,0.28-5.468,3.802-7.921,4.809c-8.892,3.649-17.746-0.716-21.124-6.491c-0.714-1.221-1.099-3.149-1.439-4.568
				c-0.209-0.866,0.106-1.823-0.24-2.404c0.048-0.624,0.106-0.816,0.24-1.202c13.601,0,27.205,0,40.806,0c0-4.728,0-9.457,0-14.186
				C786.314,143.928,784.105,137.88,778.863,133.976z M774.543,155.134c-9.121,0-18.244,0-27.364,0
				c-0.102-8.766,6.049-16.789,15.603-14.666c2.293,0.51,3.846,0.422,5.521,1.442c2.654,1.619,4.711,4.482,5.761,7.694
				c0.385,1.177,0.114,2.841,0.72,3.847C774.771,154.193,774.699,154.684,774.543,155.134z M919.524,130.129
				c0,21.476,0,42.958,0,64.435c3.671,0.02,10.429,0.765,13.442-0.24c0-14.825,0-29.654,0-44.479c0-4.568,0-9.137,0-13.705
				c0-1.907,0.253-4.509-0.24-6.011C928.326,130.129,923.925,130.129,919.524,130.129z M919.524,103.923c0,4.327,0,8.656,0,12.983
				c3.671,0.019,10.429,0.765,13.442-0.24c0.02-3.498,0.712-9.88-0.24-12.743C928.326,103.923,923.925,103.923,919.524,103.923z"/>
		</g>
	</g>
</g>
<g id="Icon_White_Eclipse_1_" enable-background="new    ">
	<g id="Icon_White_Eclipse">
		<g>
			<circle fill-rule="evenodd" clip-rule="evenodd" fill="#FFFFFF" cx="149.52" cy="149.04" r="149.04"/>
		</g>
	</g>
</g>
<g id="Icon_Red_Shape_1_" enable-background="new    ">
	<g id="Icon_Red_Shape">
		<g>
			<path fill-rule="evenodd" clip-rule="evenodd" fill="#EC1C24" d="M284.88,136.516c-0.081-1.519-0.161-3.039-0.241-4.557
				c-0.721-4.157-1.441-8.315-2.162-12.472c-2.113-7.454-4.186-14.788-6.968-21.346c-15.364-36.219-40.641-60.683-77.125-75.79
				c-9.273-3.839-19.479-5.105-30.274-7.675c-2.242-0.16-4.485-0.32-6.727-0.479c-5.405-0.506-13.033-0.581-19.221-0.479
				c-2.637,0.298-4.17,0.246-6.044,0.495c-4.449,0.591-6.216,0.853-10.294,1.424c-9.786,1.372-18.8,4.298-27.15,7.915
				c-36.998,16.026-61.885,40.957-76.05,79.038c-2.705,7.271-5.117,16.304-6.532,25.322c-0.557,3.546-0.587,6.626-1.031,10.284
				c-0.326,2.687-0.622,12.304-0.24,17.508c0.16,2.958,0.32,5.916,0.48,8.874c1.646,7.089,2.271,14.35,4.325,20.626
				c2.401,7.335,4.304,13.809,7.208,20.387c2.854,6.465,6.824,12.604,10.572,18.228c14.691,22.048,33.961,38.223,59.586,49.407
				c8.736,3.813,18.276,6.197,28.592,8.874c4.165,0.56,8.33,1.12,12.494,1.68c1.042,0,2.083,0,3.124,0
				c2.919,0.657,9.276,0.877,12.254,0.239c1.762,0,3.524,0,5.286,0c4.325-0.479,8.65-0.959,12.974-1.438
				c8.413-2.061,16.807-3.175,24.267-6.236c37.283-15.301,63.397-38.752,79.288-75.31c4.22-9.708,6.083-20.273,8.89-31.659
				c0.4-3.677,0.801-7.355,1.202-11.032c0-1.52,0-3.038,0-4.558C285.195,149.245,285.294,140.408,284.88,136.516z M271.425,155.224
				c-0.161,2.798-0.32,5.597-0.48,8.395c-1.44,6.206-1.714,12.468-3.604,18.228c-9.632,29.356-25.183,51.148-48.053,67.155
				c-3.009,2.106-6.178,3.565-9.371,5.517c-9.251,5.651-20.025,9.388-31.715,12.712c-4.485,1.274-8.853,1.038-13.695,2.158
				c-5.737,1.326-17.599,1.807-23.787,0.479c-1.682-0.08-3.364-0.16-5.045-0.24c-4.106-0.95-8.703-1.343-12.494-2.397
				c-2.275-0.634-4.98-0.475-6.728-1.68c-0.259-0.219-0.022,0.021-0.24-0.239c1.938-1.284,3.416-3.41,5.045-5.037
				c3.764-3.758,7.528-7.515,11.292-11.272c11.533-11.513,23.065-23.024,34.598-34.537c11.052-11.032,22.104-22.065,33.157-33.098
				c3.604-3.598,7.208-7.195,10.812-10.793c1.555-1.552,3.579-2.95,4.805-4.797c0.081,0,0.161,0,0.241,0c0,8.233,0,16.47,0,24.703
				c0,3.67-0.521,8.502,0.961,10.793c1.204,1.863,4.73,4.14,8.169,2.879c5.729-2.102,4.806-9.248,4.806-17.029
				c0-15.028,0-30.062,0-45.09c-19.06,0-38.124,0-57.184,0c-3.589,0.973-7.164,5.53-4.806,10.073c1.027,1.979,2.87,2.29,4.565,3.598
				c11.211,0,22.426,0,33.637,0c0,0.08,0,0.16,0,0.239c-2.026,1.343-3.581,3.575-5.286,5.277
				c-3.925,3.917-7.849,7.835-11.773,11.752c-12.094,12.072-24.187,24.144-36.28,36.216c-11.613,11.593-23.226,23.185-34.839,34.777
				c-3.764,3.757-7.528,7.515-11.292,11.272c-1.629,1.626-3.76,3.102-5.045,5.036c-3.355-0.544-6.769-2.979-9.371-4.557
				c-4.187-2.538-8.343-4.455-12.253-7.195c-3.292-2.308-6.206-5.295-9.371-7.675C54.76,228.78,41.1,207.264,34.042,186.163
				c-1.707-5.103-2.162-9.997-3.604-15.59c-1.437-5.572-1.787-11.882-1.922-18.708c-0.03-1.532,0.134-3.325,0-4.796
				c-0.279-3.071,0.21-6.518,0.457-9.25c0.412-4.569,0.635-6.32,0.984-9.218c0.938-7.768,2.991-15.077,5.767-21.825
				c14.865-36.146,39.52-60.881,77.846-73.631c4.406-1.466,9.574-2.585,14.416-3.837c2.711-0.701,5.804-0.935,8.427-1.211
				c4.655-0.491,7.077-0.306,10.093-0.517c1.883-0.131,5.346-0.343,7.189,0.048c1.602,0,3.204,0,4.805,0
				c4.402,0.994,9.147,0.568,13.455,1.679c4.004,0.959,8.009,1.919,12.013,2.878c0,0.08,0,0.16,0,0.24
				c-1.938,1.284-3.416,3.41-5.046,5.036c-3.764,3.758-7.528,7.516-11.292,11.273c-11.532,11.512-23.065,23.024-34.598,34.537
				c-11.052,11.032-22.104,22.065-33.157,33.098c-3.604,3.598-7.208,7.195-10.812,10.793c-1.554,1.552-3.578,2.95-4.805,4.797
				c-0.08,0-0.16,0-0.24,0c0-8.154,0-16.31,0-24.464c-0.36-3.695,0.486-8.438-0.961-10.793c-1.201-1.955-4.682-4.324-8.168-3.118
				c-5.755,1.992-4.806,9.088-4.806,16.789c0,15.108,0,30.221,0,45.33c19.139,0,38.284,0,57.424,0
				c3.125-0.864,6.794-5.374,4.565-9.833c-1.073-2.146-2.992-2.439-4.806-3.837c-11.131,0-22.266,0-33.397,0
				c34.835-34.854,69.681-69.717,104.516-104.571c3.418,0.927,6.798,3.092,9.611,4.797c3.676,2.229,7.37,3.824,10.812,6.235
				c2.911,2.04,5.6,4.616,8.41,6.716c16.908,12.64,28.62,30.869,37.241,51.806c2.382,5.784,3.039,11.695,4.805,18.228
				c0.895,3.309,1.106,7.473,1.922,11.032c0.08,2.159,0.16,4.317,0.24,6.476C272.13,145.908,272.098,152.063,271.425,155.224z"/>
		</g>
	</g>
</g>
</svg>
