<svg xmlns="http://www.w3.org/2000/svg" xmlns:xlink="http://www.w3.org/1999/xlink" viewBox="0 0 63.42 40.52"><defs><style>.cls-1{fill:#7cbabf;}.cls-2{clip-path:url(#clip-path);}.cls-3{fill:#005d83;}</style><clipPath id="clip-path"><polygon class="cls-1" points="61.71 39.35 1.71 39.35 1.71 2.99 1.71 1.61 61.71 1.61 61.71 39.35"/></clipPath></defs><title>Asset 18</title><g id="Layer_2" data-name="Layer 2"><g id="Layer_1-2" data-name="Layer 1"><polygon class="cls-1" points="61.71 39.35 1.71 39.35 1.71 2.99 1.71 1.61 61.71 1.61 61.71 39.35"/><g class="cls-2"><polygon class="cls-1" points="61.71 39.35 1.71 39.35 1.71 2.99 1.71 1.61 61.71 1.61 61.71 39.35"/><polyline class="cls-1" points="1.71 1.61 31.97 26.12 61.71 1.61"/><polygon class="cls-3" points="31.98 28.79 0.41 3.22 3.01 0 31.96 23.44 60.39 0.01 63.03 3.21 31.98 28.79"/><rect class="cls-3" x="-4.7" y="25.13" width="29.43" height="4.14" transform="translate(-18.1 20.12) rotate(-55.66)"/><rect class="cls-3" x="51.39" y="12.66" width="4.14" height="29.24" transform="translate(-6.07 34.92) rotate(-34.34)"/></g></g></g></svg>