<svg width="60" height="61" viewBox="0 0 60 61" fill="none" xmlns="http://www.w3.org/2000/svg">
<path d="M-0.000488281 48.6063L29.0809 36.9971L59.8655 47.2037L29.6601 60.786L-0.000488281 48.6063Z" fill="#026691"/>
<path d="M45.9655 17.2146C45.9655 8.1888 38.7626 0.872559 29.8768 0.872559C20.9909 0.872559 13.7881 8.1888 13.7881 17.2146C13.7881 20.2897 14.9388 23.2483 15.8866 25.0303C18.9637 30.8161 29.818 47.2036 29.818 47.2036L43.1569 26.4386C44.9274 23.8132 45.9655 20.6379 45.9655 17.2146Z" fill="#7BBBBF"/>
<path d="M29.8769 24.3193C33.7402 24.3193 36.872 21.1382 36.872 17.2141C36.872 13.29 33.7402 10.1089 29.8769 10.1089C26.0136 10.1089 22.8818 13.29 22.8818 17.2141C22.8818 21.1382 26.0136 24.3193 29.8769 24.3193Z" fill="#026691"/>
</svg>
