<svg width="51" height="47" viewBox="0 0 51 47" fill="none" xmlns="http://www.w3.org/2000/svg">
<g clip-path="url(#clip0)">
<path d="M34.1114 20.8948C32.2913 20.8677 30.4693 20.8864 28.6486 20.8869V3.46779L22.8054 0.0820312V20.8903C20.9723 20.8909 19.1393 20.8898 17.3063 20.8824C16.1686 20.8779 15.4879 21.1854 15.3862 21.7306C15.3295 22.2903 15.5592 22.546 15.7526 22.8061C18.524 26.5253 21.3036 30.2418 24.0692 33.9633C24.4187 34.4333 24.8815 34.7928 25.6931 34.7866C26.4977 34.7804 26.9511 34.4283 27.3011 33.9509C30.0814 30.1611 32.8972 26.3831 35.6727 22.5922C36.3769 21.6301 35.7131 20.9185 34.1114 20.8948Z" fill="#7BBBBF"/>
<path d="M50.6249 36.197C50.5706 35.1497 50.3328 33.3756 49.1641 32.247C47.3165 30.4627 44.7817 30.272 44.7817 30.272V40.4394H26.1236H25.2068H6.54879V30.272C6.54879 30.272 4.01399 30.4627 2.16636 32.247C0.997714 33.3756 0.759894 35.1497 0.705552 36.197C0.614398 37.961 0.705552 43.2609 0.705552 43.2609L3.62717 46.0823H25.2068H26.1236H47.7033L50.6249 43.2609C50.6249 43.2609 50.7161 37.961 50.6249 36.197Z" fill="#7BBBBF"/>
</g>
<defs>
<clipPath id="clip0">
<rect width="50" height="46" fill="white" transform="translate(0.665039 0.0820312)"/>
</clipPath>
</defs>
</svg>
