<svg width="55" height="56" viewBox="0 0 55 56" fill="none" xmlns="http://www.w3.org/2000/svg">
<path d="M27.8741 0.574115L36.0491 17.9766C36.1101 18.1058 36.2274 18.1954 36.363 18.2162L54.6426 21.007C54.9844 21.0593 55.1211 21.5006 54.8737 21.7546L41.6461 35.3007C41.5476 35.4016 41.5029 35.5462 41.5263 35.6887L44.6488 54.8163C44.7072 55.1744 44.3496 55.4471 44.0439 55.2784L27.6938 46.2471C27.5724 46.1799 27.4271 46.1799 27.3057 46.2471L10.9561 55.2779C10.6503 55.4471 10.2928 55.1739 10.3512 54.8158L13.4737 35.6881C13.4971 35.5462 13.4519 35.4011 13.3539 35.3002L0.126269 21.7546C-0.121075 21.5011 0.0155482 21.0593 0.357361 21.007L18.637 18.2162C18.7726 18.1954 18.8904 18.1058 18.9509 17.9766L27.1259 0.574115C27.2788 0.248081 27.7207 0.248081 27.8741 0.574115Z" fill="#7BBBBF"/>
</svg>
