<svg width="63" height="64" viewBox="0 0 63 64" fill="none" xmlns="http://www.w3.org/2000/svg">
<path d="M62.9995 59.4706L56.5592 48.1849C59.3955 43.4286 61.0355 37.8276 61.0355 31.8294C61.0355 14.5953 47.5268 0.624512 30.8627 0.624512C14.1986 0.624512 0.689941 14.5953 0.689941 31.8294C0.689941 49.0635 14.1986 63.0342 30.8627 63.0342C37.3365 63.0342 43.3288 60.9185 48.2436 57.3293C49.1273 57.9374 50.1673 58.6253 51.5566 59.4311C56.3614 62.2187 62.8332 59.6918 62.8332 59.6918C62.7775 59.6003 62.7138 59.5095 62.6555 59.4179L62.9995 59.4706Z" fill="#7BBBBF"/>
<path d="M31.1983 11.7192C20.6613 11.7192 12.0889 20.5849 12.0889 31.4823C12.0889 42.3797 20.6613 51.2454 31.1983 51.2454C41.7353 51.2454 50.3078 42.3797 50.3078 31.4823C50.3078 20.5849 41.7353 11.7192 31.1983 11.7192ZM31.1983 47.7782C29.6474 47.7782 27.5682 44.1425 26.6462 38.07H35.7511C34.8284 44.1425 32.7492 47.7782 31.1983 47.7782ZM26.2768 34.6028C26.2111 33.6049 26.1695 32.5696 26.1695 31.4823C26.1695 29.8784 26.2533 28.3799 26.3921 26.9749H36.0045C36.1433 28.3799 36.2271 29.8784 36.2271 31.4823C36.2271 32.5696 36.1855 33.6049 36.1198 34.6028H26.2768ZM15.4414 31.4823C15.4414 29.9186 15.66 28.4076 16.0596 26.9749H23.0014C22.8813 28.3833 22.817 29.8853 22.817 31.4823C22.817 32.5669 22.8492 33.6049 22.9055 34.6028H15.7344C15.544 33.5925 15.4414 32.5495 15.4414 31.4823ZM31.1983 15.1864C32.6272 15.1864 34.5032 18.2743 35.5117 23.5077H26.8849C27.8934 18.2743 29.7695 15.1864 31.1983 15.1864ZM39.3953 26.9749H46.337C46.7366 28.4076 46.9552 29.9186 46.9552 31.4823C46.9552 32.5495 46.8526 33.5925 46.6622 34.6028H39.4911C39.5475 33.6049 39.5796 32.5669 39.5796 31.4823C39.5796 29.8853 39.5153 28.3833 39.3953 26.9749ZM44.9316 23.5077H38.9574C38.4478 20.5128 37.6553 18.0732 36.6877 16.2086C40.1958 17.5615 43.1139 20.1723 44.9316 23.5077ZM25.7089 16.2086C24.7413 18.0732 23.9488 20.5128 23.4392 23.5077H17.465C19.2827 20.1723 22.2008 17.5615 25.7089 16.2086ZM16.7911 38.07H23.2267C23.7114 41.7078 24.5952 44.6105 25.7082 46.756C21.7281 45.2208 18.5063 42.0656 16.7911 38.07ZM36.6877 46.756C37.8008 44.6105 38.6852 41.7078 39.1693 38.07H45.6048C43.8903 42.0656 40.6685 45.2208 36.6877 46.756Z" fill="#026691"/>
</svg>
