<svg xmlns="http://www.w3.org/2000/svg" viewBox="0 0 55.11 55"><defs><style>.cls-1{fill:#7cbabf;}.cls-2{fill:#026691;}</style></defs><title>Asset 19</title><g id="Layer_2" data-name="Layer 2"><g id="Layer_1-2" data-name="Layer 1"><path class="cls-1" d="M55.11,32.61V22.51l-6.2-1a19.3,19.3,0,0,0-2-4.71l3.67-5.05L43.52,4.48,38.35,8a24,24,0,0,0-4.71-2L32.61,0H22.51l-1,6.2a21.39,21.39,0,0,0-4.71,2L11.71,4.59,4.48,11.71l3.67,5.05a22.34,22.34,0,0,0-2,4.82L0,22.51v10.1l6.2,1a21.38,21.38,0,0,0,2,4.71L4.48,43.52l7.12,7.12L16.76,47a22.33,22.33,0,0,0,4.82,2l1,6.09h10.1l1-6.2a24,24,0,0,0,4.71-2l5.17,3.67,7.12-7.12-3.67-5.17a21.39,21.39,0,0,0,2-4.71ZM27.56,43.29A15.73,15.73,0,1,1,43.29,27.56,15.69,15.69,0,0,1,27.56,43.29Z"/><path class="cls-2" d="M27.56,20.75a6.75,6.75,0,1,1-6.75,6.75,6.76,6.76,0,0,1,6.75-6.75m0-4A10.75,10.75,0,1,0,38.31,27.5,10.75,10.75,0,0,0,27.56,16.75Z"/></g></g></svg>