<?xml version="1.0" standalone="no"?>
<!DOCTYPE svg PUBLIC "-//W3C//DTD SVG 20010904//EN"
 "http://www.w3.org/TR/2001/REC-SVG-20010904/DTD/svg10.dtd">
<svg version="1.0" xmlns="http://www.w3.org/2000/svg"
 width="324.000000pt" height="324.000000pt" viewBox="0 0 324.000000 324.000000"
 preserveAspectRatio="xMidYMid meet">
<metadata>
Created by potrace 1.14, written by Peter Selinger 2001-2017
</metadata>
<g transform="translate(0.000000,324.000000) scale(0.100000,-0.100000)"
fill="#000000" stroke="none">
<path d="M1620 3228 c-385 -45 -702 -198 -970 -467 -178 -179 -293 -354 -374
-574 -65 -173 -115 -427 -84 -427 25 0 97 45 143 89 50 47 82 103 110 191 110
346 348 637 660 809 232 128 457 183 720 176 152 -4 168 -6 295 -37 207 -49
435 -167 580 -298 61 -55 118 -95 156 -108 68 -23 216 9 197 42 -19 34 -125
145 -200 211 -222 195 -528 340 -798 380 -22 3 -53 8 -70 11 -49 9 -295 11
-365 2z"/>
<path d="M1600 2650 c-365 -69 -651 -308 -794 -662 -14 -35 -14 -38 1 -38 9 0
54 18 99 40 89 43 199 126 279 210 274 288 713 342 1050 129 82 -51 126 -68
185 -69 51 0 116 16 143 35 18 12 14 18 -49 79 -142 137 -317 230 -510 271
-115 25 -288 27 -404 5z"/>
<path d="M1510 1972 c-22 -18 -22 -19 -22 -352 l0 -334 22 -18 c15 -12 30 -16
44 -12 12 3 125 58 251 122 127 64 262 131 300 150 39 20 78 42 88 50 24 21
22 74 -4 90 -48 30 -632 322 -644 322 -7 0 -23 -8 -35 -18z"/>
<path d="M184 1430 c3 -33 15 -104 27 -158 127 -583 583 -1059 1162 -1211 61
-17 128 -32 147 -35 19 -3 58 -8 85 -12 84 -12 335 -6 430 10 126 21 136 23
244 58 246 78 475 219 653 400 107 109 136 147 117 159 -36 23 -119 32 -173
20 -55 -12 -80 -29 -191 -122 -551 -464 -1379 -426 -1892 89 -159 159 -274
349 -348 572 -49 148 -115 228 -230 276 l-37 15 6 -61z"/>
<path d="M805 1260 c84 -239 282 -459 521 -578 61 -31 168 -70 213 -79 14 -2
28 -6 32 -8 14 -9 137 -19 234 -19 262 1 529 112 714 296 l62 62 -23 18 c-32
24 -110 41 -161 35 -45 -6 -95 -28 -142 -63 -75 -55 -207 -108 -323 -128 -68
-12 -241 -14 -287 -3 -11 3 -42 10 -70 17 -131 30 -271 115 -410 250 -128 123
-218 184 -336 225 l-38 14 14 -39z"/>
</g>
</svg>
