<svg xmlns="http://www.w3.org/2000/svg" viewBox="0 0 69.93 64.07"><defs><style>.cls-1{fill:#1a3f61;stroke:#1a3f61;}.cls-2{fill:#7cbabf;}</style></defs><title>Asset 33</title><g id="Layer_2" data-name="Layer 2"><g id="Layer_1-2" data-name="Layer 1"><path class="cls-1" d="M19.27,56.53a32.57,32.57,0,0,0,7.16,4.54A31,31,0,0,0,58,56.84a30.49,30.49,0,0,0,5-5.14,31,31,0,0,0,6.13-23.2A32.25,32.25,0,0,0,57,7.37c-13.77-10.84-33.5-8.6-44,5a30.89,30.89,0,0,0-6.16,15c-1.55,0-3.1,0-4.65,0s-2.17.74-1.46,1.7c2.78,3.77,5.59,7.53,8.38,11.31a1.82,1.82,0,0,0,1.57.83,1.73,1.73,0,0,0,1.54-.83Q16.14,34.79,20,29.21a1.33,1.33,0,0,0,.33-1.07c-.11-.54-.78-.85-1.87-.84l-4.2,0A23.72,23.72,0,0,1,18.83,16.9a23.28,23.28,0,0,1,16-9,24.29,24.29,0,0,1,17.86,5.13A24.8,24.8,0,0,1,62,29.31a23.79,23.79,0,0,1-4.71,17.84C50.75,55.57,40.39,58.7,30.4,54.56a9.74,9.74,0,0,0-5.87-.93C23.16,53.81,18.73,56.11,19.27,56.53Z"/><path class="cls-2" d="M39.89,37l0-20.06H35.29l0,20.06Z"/><path class="cls-2" d="M35.25,37l15.2,0V32.36l-15.2,0Z"/></g></g></svg>