<svg width="58" height="60" viewBox="0 0 58 60" fill="none" xmlns="http://www.w3.org/2000/svg">
<path d="M28.7112 59.1622C44.568 59.1622 57.4225 46.0296 57.4225 29.8296C57.4225 13.6297 44.568 0.49707 28.7112 0.49707C12.8545 0.49707 0 13.6297 0 29.8296C0 46.0296 12.8545 59.1622 28.7112 59.1622Z" fill="#1A3F61"/>
<path d="M47.5827 19.9942C47.2771 19.6857 46.9106 19.7077 46.5127 19.8402C43.3555 20.8946 40.1916 21.9286 37.0354 22.9856C36.2351 23.2538 36.088 23.9122 36.676 24.5471C37.302 25.2228 37.9501 25.8765 38.592 26.537L28.8348 36.6562L21.3432 28.85H18.2311L7.21777 39.3087C7.21777 39.3087 8.7164 39.8964 10.3904 39.8964C11.5916 39.8964 12.9457 38.8247 12.9457 38.8247L19.7369 32.4354L27.2895 40.3055H30.3749L41.1252 29.157C41.7446 29.7971 42.3665 30.4351 42.9822 31.0788C43.4073 31.523 43.8344 31.6141 44.1763 31.3465C44.5096 31.0537 44.566 30.82 44.6383 30.5985C45.6709 27.4285 46.6983 24.2569 47.734 21.0879C47.8647 20.6877 47.8914 20.3054 47.5827 19.9942Z" fill="#7BBBBF"/>
</svg>
