<svg width="2428" height="2405" viewBox="0 0 2428 2405" fill="none" xmlns="http://www.w3.org/2000/svg">
<path d="M1214.13 1549.3C1323.52 1549.3 1421.29 1499.62 1485.48 1421.72" stroke="#F8FFFF" stroke-width="3" stroke-miterlimit="10"/>
<path d="M1537.24 1068.39C1484.28 943.322 1359.63 855.486 1214.13 855.486C1020.74 855.486 864.005 1010.76 864.005 1202.33C864.005 1322.09 925.257 1427.68 1018.34 1489.95" stroke="#F8FFFF" stroke-width="3" stroke-miterlimit="10"/>
<path d="M1672.84 954.319C1584.18 793.617 1411.92 684.716 1214.13 684.716" stroke="#F8FFFF" stroke-width="3" stroke-miterlimit="10"/>
<path d="M992.66 733.337C814.791 815.874 691.619 994.858 691.619 1202.33C691.619 1488.22 925.524 1719.94 1214.13 1719.94C1463.81 1719.94 1672.71 1546.38 1724.33 1314.41" stroke="#F8FFFF" stroke-width="3" stroke-miterlimit="10"/>
<path d="M631.036 1576.85C754.876 1765.78 969.791 1890.71 1214.13 1890.71C1501.93 1890.71 1748.94 1717.42 1854.32 1470.34" stroke="#F8FFFF" stroke-width="3" stroke-miterlimit="10"/>
<path d="M1905.41 1132.24C1869.97 785.006 1574.01 513.946 1214.13 513.946C830.304 513.946 519.233 822.101 519.233 1202.33C519.233 1226.04 520.436 1249.62 522.843 1272.67" stroke="#F8FFFF" stroke-width="3" stroke-miterlimit="10"/>
<path d="M1832.53 600.059C1675.25 441.61 1456.19 343.308 1214.13 343.308C735.217 343.308 346.98 727.905 346.98 1202.33C346.98 1676.75 735.217 2061.34 1214.13 2061.34C1660.01 2061.34 2027.25 1728.02 2075.79 1299.3" stroke="#F8FFFF" stroke-width="3" stroke-miterlimit="10"/>
<path d="M2080.21 1158.34C2072.05 997.375 2019.09 848.2 1933.63 722.606" stroke="#F8FFFF" stroke-width="3" stroke-miterlimit="10"/>
<path d="M2204.45 1516.31C2227.85 1443.71 2243.36 1367.66 2250.05 1288.97" stroke="#F8FFFF" stroke-width="3" stroke-miterlimit="10"/>
<path d="M258.045 797.459C204.417 921.728 174.594 1058.58 174.594 1202.33C174.594 1771.07 639.997 2232.11 1214.13 2232.11C1619.75 2232.11 1971.21 2001.99 2142.39 1666.28" stroke="#F8FFFF" stroke-width="3" stroke-miterlimit="10"/>
<path d="M2250.72 1125.09C2210.87 592.376 1761.91 172.538 1214.13 172.538C858.656 172.538 544.91 349.27 357.411 618.872" stroke="#F8FFFF" stroke-width="3" stroke-miterlimit="10"/>
<path d="M79.3732 1624.55C251.893 2079.23 694.829 2402.75 1214.13 2402.75C1883.48 2402.75 2425.91 1865.27 2425.91 1202.33C2425.91 1074.21 2405.59 950.741 2368.14 834.951" stroke="#F8FFFF" stroke-width="3" stroke-miterlimit="10"/>
<path d="M2323.87 719.161C2136.24 296.806 1709.89 1.89978 1214.13 1.89978C544.776 1.89978 2.34094 539.382 2.34094 1202.33C2.34094 1277.44 9.29526 1350.97 22.6689 1422.25" stroke="#F8FFFF" stroke-width="3" stroke-miterlimit="10"/>
</svg>
